<?xml version="1.0" encoding="UTF-8" standalone="no"?>
<!-- Created with Inkscape (http://www.inkscape.org/) -->

<svg
   width="255.99998"
   height="127.99999"
   viewBox="0 0 67.733328 33.866664"
   version="1.1"
   id="svg1"
   xmlns="http://www.w3.org/2000/svg"
   xmlns:svg="http://www.w3.org/2000/svg">
  <defs
     id="defs1" />
  <g
     id="layer1">
    <g
       id="g1"
       transform="translate(-0.11172514,0.16138357)">
      <path
         style="fill:#dc91ea;stroke:#000000;stroke-width:0.0731081"
         d="M 11.558398,7.3736391 C 9.2141668,8.2699443 7.9576997,10.731351 7.5284592,13.073979 c -0.8327136,4.344936 0.3307374,9.255803 3.6690378,12.295876 1.907988,1.901013 5.084385,1.76603 7.263917,0.419063 1.869644,-1.067062 3.110837,-3.253934 2.734415,-5.422079 -0.299279,-2.18655 -1.870619,-4.432758 -4.180534,-4.738814 -1.357528,-0.249715 -2.330855,0.906293 -3.19077,1.758162 -0.644614,0.638348 -1.765839,1.279594 -2.608959,0.635865 -0.93246,-0.878006 -0.292,-2.746071 1.031142,-2.768323 1.241255,-0.205811 2.049909,1.159884 1.930707,2.257427 -0.04362,1.441204 -1.437887,2.214348 -2.5301,2.865851 -1.419243,0.796719 -3.1124733,1.650182 -3.5550687,3.362834 -0.6412988,1.92237 1.2343412,4.076255 3.2235747,3.730457 2.485064,-0.158869 4.346337,-2.492661 4.562745,-4.870828 0.370189,-1.73902 0.818955,-3.745394 2.444327,-4.747888 0.937928,-0.624479 2.028715,-0.210546 3.009,0.0404 1.132436,0.326005 2.631422,0.3961 3.354551,-0.729769 1.013025,-1.241242 0.534933,-3.086481 -0.547275,-4.116051 -0.870291,-0.908613 -2.276316,-1.45673 -3.491532,-0.941893 -1.080834,0.914275 -2.221041,2.160055 -3.756328,2.087647 -1.162036,-0.120065 -2.295127,-1.550778 -1.50952,-2.638386 0.508297,-0.921197 2.064242,-0.987632 2.379851,0.133823 0.51698,1.890056 -0.457191,3.963025 0.452876,5.790981 0.382325,1.117414 1.232341,2.170552 2.499277,2.272235 1.129822,0.244189 2.272138,-0.699123 2.171161,-1.863876 -0.215236,-1.642143 -1.977396,-2.328704 -2.844079,-3.575639 -0.890757,-1.036257 -0.222243,-2.349589 -0.181209,-3.53012 0.15294,-1.1282969 -0.261873,-2.5638732 -1.534252,-2.8083826 -1.009392,-0.3077935 -2.170604,-0.07552 -2.871912,0.7500446 -0.973719,0.9467411 -1.424464,2.363899 -2.55739,3.146878 -1.093282,0.624852 -2.71383,-0.45471 -2.338828,-1.726486 0.146654,-1.0091341 1.249821,-1.1813995 2.056384,-1.3986323 1.018791,-0.074181 1.071901,-1.7047827 0.08496,-1.8425273 -0.424079,-0.090016 -0.942307,0.056005 -1.140234,0.4718176 z"
         id="path5-6" />
      <circle
         style="fill:#000000;fill-opacity:1;stroke:#000000;stroke-width:0.0731081"
         id="path15-1"
         cx="15.859443"
         cy="16.77195"
         r="13.884769" />
      <path
         style="fill:#ffffff;fill-opacity:1;stroke:#000000;stroke-width:0.0731081"
         d="m 15.511319,13.38299 c -0.06529,-0.08376 -0.123967,-0.171777 -0.174775,-0.262976 -0.270965,-0.486377 -0.318312,-1.063169 0.04524,-1.56648 0.508298,-0.921197 2.064242,-0.987632 2.379851,0.133824 0.51698,1.890056 -0.45719,3.963025 0.452876,5.79098 0.382325,1.117414 1.232341,2.170552 2.499278,2.272235 1.129817,0.244189 2.272137,-0.699123 2.171159,-1.863877 -0.215232,-1.642148 -1.977394,-2.328709 -2.844076,-3.575644 -0.890757,-1.036257 -0.222243,-2.349588 -0.181214,-3.53012 C 20.0126,9.6526351 19.597789,8.217059 18.325411,7.9725496 17.316019,7.6647562 16.154808,7.8970296 15.4535,8.7225942 c -0.97372,0.9467409 -1.424464,2.3638988 -2.557391,3.1468778 -1.093281,0.624852 -2.71383,-0.454711 -2.338828,-1.726485 0.146655,-1.0091348 1.249821,-1.1814003 2.056384,-1.398633 1.018791,-0.074181 1.071901,-1.7047827 0.08496,-1.8425273 -0.424077,-0.090016 -0.942307,0.056005 -1.140233,0.4718176 v -5.2e-6 C 9.2141655,8.2699443 7.9576983,10.731351 7.5284572,13.073979 c -0.8327135,4.344936 0.330737,9.255803 3.6690368,12.295876 1.90799,1.901013 5.084386,1.76603 7.263917,0.419063 1.86964,-1.067062 3.110838,-3.253934 2.734415,-5.422079 -0.299282,-2.18655 -1.870623,-4.432758 -4.180533,-4.738814 -1.357529,-0.249715 -2.330854,0.906293 -3.190769,1.758162 -0.644616,0.638348 -1.765841,1.279594 -2.60896,0.635865 -0.93246,-0.878006 -0.291999,-2.746071 1.031143,-2.768323 0.30607,-0.05076 0.585838,-0.0059 0.831878,0.106831 0.08736,0.04005 0.170466,0.08865 0.248989,0.14459"
         id="path6" />
      <circle
         style="fill:#5fed83;fill-opacity:1;stroke:#000000;stroke-width:0.0731081"
         id="path7-8"
         cx="15.280173"
         cy="5.94591"
         r="1.1852852" />
      <path
         style="fill:#ffffff;fill-opacity:1;stroke:#000000;stroke-width:0.0731081"
         d="m 13.327575,15.50515 c 0.07946,0.0566 0.154207,0.120721 0.223927,0.191065 0.454329,0.458401 0.694725,1.181351 0.625913,1.814941 -0.04362,1.441204 -1.437887,2.214348 -2.5301,2.865851 -1.419243,0.796719 -3.1124733,1.650182 -3.5550687,3.362834 -0.6412988,1.92237 1.2343412,4.076255 3.2235747,3.730457 2.485064,-0.158869 4.346337,-2.492661 4.562745,-4.870828 0.370189,-1.73902 0.818955,-3.745394 2.444327,-4.747888 0.937928,-0.624479 2.028715,-0.210546 3.008996,0.0404 1.13244,0.326005 2.631421,0.3961 3.35455,-0.729769 1.01303,-1.241242 0.534933,-3.086481 -0.54727,-4.116051 -0.870291,-0.908613 -2.27632,-1.45673 -3.491536,-0.941893 -1.080834,0.914275 -2.221037,2.160055 -3.756324,2.087647 -0.404255,-0.04178 -0.805007,-0.242156 -1.122692,-0.531539 -0.09367,-0.08532 -0.180113,-0.17838 -0.257298,-0.277391"
         id="path11" />
      <circle
         style="fill:#5fed83;fill-opacity:1;stroke:#000000;stroke-width:0.0731081"
         id="path8-9"
         cx="24.39459"
         cy="21.536592"
         r="1.862591" />
      <path
         style="fill:#ffffff;fill-opacity:1;stroke:#000000;stroke-width:0.0731081"
         d="m 15.511319,13.38299 c -0.06529,-0.08376 -0.123967,-0.171777 -0.174775,-0.262976 -0.270965,-0.486377 -0.318312,-1.063169 0.04524,-1.56648 0.508298,-0.921197 2.064242,-0.987632 2.379851,0.133824 0.51698,1.890056 -0.45719,3.963025 0.452876,5.79098 0.382325,1.117414 1.232341,2.170552 2.499278,2.272235 1.129817,0.244189 2.272137,-0.699123 2.171159,-1.863877 -0.215232,-1.642148 -1.977394,-2.328709 -2.844076,-3.575644 -0.890757,-1.036257 -0.222243,-2.349588 -0.181214,-3.53012 C 20.0126,9.6526351 19.597789,8.217059 18.325411,7.9725496 17.316019,7.6647562 16.154808,7.8970296 15.4535,8.7225942 c -0.97372,0.9467409 -1.424464,2.3638988 -2.557391,3.1468778 -1.093281,0.624852 -2.71383,-0.454711 -2.338828,-1.726485 0.146655,-1.0091348 1.249821,-1.1814003 2.056384,-1.398633 1.018791,-0.074181 1.071901,-1.7047827 0.08496,-1.8425273 -0.424077,-0.090016 -0.942307,0.056005 -1.140233,0.4718176 v -5.2e-6 C 9.2141655,8.2699443 7.9576983,10.731351 7.5284572,13.073979 c -0.8327135,4.344936 0.330737,9.255803 3.6690368,12.295876 1.90799,1.901013 5.084386,1.76603 7.263917,0.419063 1.86964,-1.067062 3.110838,-3.253934 2.734415,-5.422079 -0.299282,-2.18655 -1.870623,-4.432758 -4.180533,-4.738814 -1.357529,-0.249715 -2.330854,0.906293 -3.190769,1.758162 -0.644616,0.638348 -1.765841,1.279594 -2.60896,0.635865 -0.93246,-0.878006 -0.291999,-2.746071 1.031143,-2.768323 0.30607,-0.05076 0.585838,-0.0059 0.831878,0.106831 0.08736,0.04005 0.170466,0.08865 0.248989,0.14459"
         id="path14-2" />
      <path
         style="fill:#ffffff;fill-opacity:1;stroke:#000000;stroke-width:0.0731081"
         d="m 13.327575,15.50515 c 0.07946,0.0566 0.154207,0.120721 0.223927,0.191065 0.454329,0.458401 0.694725,1.181351 0.625913,1.814941 -0.04362,1.441204 -1.437887,2.214348 -2.5301,2.865851 -1.419243,0.796719 -3.1124733,1.650182 -3.5550687,3.362834 -0.6412988,1.92237 1.2343412,4.076255 3.2235747,3.730457 2.485064,-0.158869 4.346337,-2.492661 4.562745,-4.870828 0.370189,-1.73902 0.818955,-3.745394 2.444327,-4.747888 0.937928,-0.624479 2.028715,-0.210546 3.008996,0.0404 1.13244,0.326005 2.631421,0.3961 3.35455,-0.729769 1.01303,-1.241242 0.534933,-3.086481 -0.54727,-4.116051 -0.870291,-0.908613 -2.27632,-1.45673 -3.491536,-0.941893 -1.080834,0.914275 -2.221037,2.160055 -3.756324,2.087647 -0.404255,-0.04178 -0.805007,-0.242156 -1.122692,-0.531539 -0.09367,-0.08532 -0.180113,-0.17838 -0.257298,-0.277391"
         id="path13-7" />
      <path
         style="fill:#ffffff;fill-opacity:1;stroke:#000000;stroke-width:0.22154;stroke-dasharray:none"
         d="m 15.511319,13.38299 c -0.06529,-0.08376 -0.123967,-0.171777 -0.174775,-0.262976 -0.270965,-0.486377 -0.318312,-1.063169 0.04524,-1.56648 0.508298,-0.921197 2.064242,-0.987632 2.379851,0.133824 0.51698,1.890056 -0.45719,3.963025 0.452876,5.79098 0.382325,1.117414 1.232341,2.170552 2.499278,2.272235 1.129817,0.244189 2.272137,-0.699123 2.171159,-1.863877 -0.215232,-1.642148 -1.977394,-2.328709 -2.844076,-3.575644 -0.890757,-1.036257 -0.222243,-2.349588 -0.181214,-3.53012 C 20.0126,9.6526351 19.597789,8.217059 18.325411,7.9725496 17.316019,7.6647562 16.154808,7.8970296 15.4535,8.7225942 c -0.97372,0.9467409 -1.424464,2.3638988 -2.557391,3.1468778 -1.093281,0.624852 -2.71383,-0.454711 -2.338828,-1.726485 0.146655,-1.0091348 1.249821,-1.1814003 2.056384,-1.398633 1.018791,-0.074181 1.071901,-1.7047827 0.08496,-1.8425273 -0.424077,-0.090016 -0.942307,0.056005 -1.140233,0.4718176 v -5.2e-6 C 9.2141655,8.2699443 7.9576983,10.731351 7.5284572,13.073979 c -0.8327135,4.344936 0.330737,9.255803 3.6690368,12.295876 1.90799,1.901013 5.084386,1.76603 7.263917,0.419063 1.86964,-1.067062 3.110838,-3.253934 2.734415,-5.422079 -0.299282,-2.18655 -1.870623,-4.432758 -4.180533,-4.738814 -1.357529,-0.249715 -2.330854,0.906293 -3.190769,1.758162 -0.644616,0.638348 -1.765841,1.279594 -2.60896,0.635865 -0.93246,-0.878006 -0.291999,-2.746071 1.031143,-2.768323 0.30607,-0.05076 0.585838,-0.0059 0.831878,0.106831 0.08736,0.04005 0.170466,0.08865 0.248989,0.14459"
         id="path3" />
      <path
         style="fill:#ffffff;fill-opacity:1;stroke:#000000;stroke-width:0.22154;stroke-dasharray:none"
         d="m 13.327575,15.50515 c 0.07946,0.0566 0.154207,0.120721 0.223927,0.191065 0.454329,0.458401 0.694725,1.181351 0.625913,1.814941 -0.04362,1.441204 -1.437887,2.214348 -2.5301,2.865851 -1.419243,0.796719 -3.1124733,1.650182 -3.5550687,3.362834 -0.6412988,1.92237 1.2343412,4.076255 3.2235747,3.730457 2.485064,-0.158869 4.346337,-2.492661 4.562745,-4.870828 0.370189,-1.73902 0.818955,-3.745394 2.444327,-4.747888 0.937928,-0.624479 2.028715,-0.210546 3.008996,0.0404 1.13244,0.326005 2.631421,0.3961 3.35455,-0.729769 1.01303,-1.241242 0.534933,-3.086481 -0.54727,-4.116051 -0.870291,-0.908613 -2.27632,-1.45673 -3.491536,-0.941893 -1.080834,0.914275 -2.221037,2.160055 -3.756324,2.087647 -0.404255,-0.04178 -0.805007,-0.242156 -1.122692,-0.531539 -0.09367,-0.08532 -0.180113,-0.17838 -0.257298,-0.277391"
         id="path4" />
      <path
         style="fill:#ffffff;fill-opacity:1;stroke:#000000;stroke-width:0.22154;stroke-dasharray:none"
         d="m 16.864818,10.875986 c 0.184299,0.03341 0.358587,0.105719 0.506478,0.219281 0.17768,0.136427 0.317267,0.332415 0.390344,0.592091 0.51698,1.890056 -0.457191,3.963025 0.452876,5.79098 0.382325,1.117414 1.232341,2.170552 2.499277,2.272235 1.129817,0.244189 2.272138,-0.699123 2.171161,-1.863877 -0.215236,-1.642148 -1.977396,-2.328709 -2.844079,-3.575644 -0.890757,-1.036257 -0.222243,-2.349588 -0.181214,-3.53012 C 19.989381,9.8239781 19.71068,8.6459858 18.846768,8.1610975 18.692085,8.074278 18.518637,8.0096799 18.325414,7.9725496"
         id="path10-5" />
      <text
         xml:space="preserve"
         style="font-size:1.40678px;text-align:start;writing-mode:lr-tb;direction:ltr;text-anchor:start;fill:#000000;fill-opacity:1;stroke:none;stroke-width:0.0731081;stroke-opacity:1"
         x="32.023521"
         y="12.246803"
         id="text9"><tspan
           id="tspan9"
           style="font-style:normal;font-variant:normal;font-weight:450;font-stretch:normal;font-size:7.50279px;font-family:'LT Superior';-inkscape-font-specification:'LT Superior,  weight=450';font-variant-ligatures:normal;font-variant-caps:normal;font-variant-numeric:normal;font-variant-east-asian:normal;fill:#000000;fill-opacity:1;stroke:none;stroke-width:0.0731081;stroke-opacity:1"
           x="32.023521"
           y="12.246803">NUCLEAR</tspan></text>
      <text
         xml:space="preserve"
         style="font-style:normal;font-variant:normal;font-weight:normal;font-stretch:normal;font-size:6.25234px;font-family:Bounded;-inkscape-font-specification:'Bounded, Normal';font-variant-ligatures:normal;font-variant-caps:normal;font-variant-numeric:normal;font-variant-east-asian:normal;text-align:start;writing-mode:lr-tb;direction:ltr;text-anchor:start;fill:#000000;fill-opacity:1;stroke:none;stroke-width:0.0731081;stroke-opacity:1"
         x="32.023521"
         y="19.397917"
         id="text10"><tspan
           id="tspan10"
           style="font-style:normal;font-variant:normal;font-weight:450;font-stretch:normal;font-size:7.50279px;font-family:'LT Superior';-inkscape-font-specification:'LT Superior,  weight=450';font-variant-ligatures:normal;font-variant-caps:normal;font-variant-numeric:normal;font-variant-east-asian:normal;stroke-width:0.0731081"
           x="32.023521"
           y="19.397917">DATA</tspan></text>
      <g
         id="g15"
         transform="matrix(0.44307931,0,0,0.44307931,-20.321355,-55.682816)">
        <text
           xml:space="preserve"
           style="font-size:3.175px;text-align:start;writing-mode:lr-tb;direction:ltr;text-anchor:start;fill:#000000;fill-opacity:1;stroke:none;stroke-width:0.165;stroke-opacity:1"
           x="118.13883"
           y="185.55789"
           id="text11"><tspan
             id="tspan11"
             style="font-style:normal;font-variant:normal;font-weight:450;font-stretch:normal;font-size:16.9333px;font-family:'LT Superior';-inkscape-font-specification:'LT Superior,  weight=450';font-variant-ligatures:normal;font-variant-caps:normal;font-variant-numeric:normal;font-variant-east-asian:normal;fill:#000000;fill-opacity:1;stroke:none;stroke-width:0.165;stroke-opacity:1"
             x="118.13883"
             y="185.55789">PROJECT</tspan></text>
      </g>
    </g>
  </g>
</svg>
